<svg width="190" height="34" viewBox="0 0 190 34" fill="none" xmlns="http://www.w3.org/2000/svg">
<path d="M50.08 9.27189V14.5679C50.08 14.6852 50.0373 14.7866 49.952 14.8719C49.8667 14.9572 49.7653 14.9999 49.648 14.9999H47.552C47.4347 14.9999 47.3333 14.9572 47.248 14.8719C47.1627 14.7866 47.12 14.6852 47.12 14.5679V4.23189C47.12 4.11456 47.1627 4.01323 47.248 3.92789C47.3333 3.84256 47.4347 3.79989 47.552 3.79989H49.408C49.7067 3.79989 49.936 3.94389 50.096 4.23189L52.688 8.66389L55.28 4.23189C55.44 3.94389 55.6693 3.79989 55.968 3.79989H57.824C57.9413 3.79989 58.0427 3.84256 58.128 3.92789C58.2133 4.01323 58.256 4.11456 58.256 4.23189V14.5679C58.256 14.6852 58.2133 14.7866 58.128 14.8719C58.0427 14.9572 57.9413 14.9999 57.824 14.9999H55.728C55.6107 14.9999 55.5093 14.9572 55.424 14.8719C55.3387 14.7866 55.296 14.6852 55.296 14.5679V9.27189L53.792 11.9119C53.7173 12.0292 53.632 12.1252 53.536 12.1999C53.4507 12.2746 53.3387 12.3119 53.2 12.3119H52.176C52.0373 12.3119 51.92 12.2746 51.824 12.1999C51.7387 12.1252 51.6587 12.0292 51.584 11.9119L50.08 9.27189Z" fill="#FE6915"/>
<path d="M65.071 9.55989C65.071 8.97323 64.7617 8.67989 64.143 8.67989C63.791 8.67989 63.503 8.77589 63.279 8.96789C63.1937 9.05323 63.1083 9.10656 63.023 9.12789C62.9377 9.14923 62.831 9.15989 62.703 9.15989H60.671C60.5643 9.15989 60.4737 9.12789 60.399 9.06389C60.335 8.99989 60.3083 8.91456 60.319 8.80789C60.351 8.47723 60.5323 8.13589 60.863 7.78389C61.2043 7.42123 61.663 7.12256 62.239 6.88789C62.815 6.64256 63.4497 6.51989 64.143 6.51989C65.4123 6.51989 66.3617 6.80789 66.991 7.38389C67.631 7.95989 67.951 8.73856 67.951 9.71989V14.5679C67.951 14.6852 67.9083 14.7866 67.823 14.8719C67.7377 14.9572 67.6363 14.9999 67.519 14.9999H65.503C65.3857 14.9999 65.2843 14.9572 65.199 14.8719C65.1137 14.7866 65.071 14.6852 65.071 14.5679V14.1199C64.7937 14.4612 64.463 14.7226 64.079 14.9039C63.695 15.0746 63.2097 15.1599 62.623 15.1599C61.727 15.1599 61.023 14.9252 60.511 14.4559C60.0097 13.9866 59.759 13.3786 59.759 12.6319C59.759 11.9172 60.0363 11.3306 60.591 10.8719C61.1457 10.4132 62.015 10.0826 63.199 9.87989L65.071 9.55989ZM63.599 11.6879C63.3003 11.7412 63.0657 11.8372 62.895 11.9759C62.7243 12.1039 62.639 12.2639 62.639 12.4559C62.639 12.8186 62.895 12.9999 63.407 12.9999C63.8763 12.9999 64.271 12.8506 64.591 12.5519C64.911 12.2532 65.071 11.8906 65.071 11.4639L63.599 11.6879Z" fill="#FE6915"/>
<path d="M77.8369 6.67989C77.9542 6.67989 78.0555 6.72256 78.1409 6.80789C78.2262 6.89323 78.2689 6.99456 78.2689 7.11189V14.5679C78.2689 14.6852 78.2262 14.7866 78.1409 14.8719C78.0555 14.9572 77.9542 14.9999 77.8369 14.9999H75.8209C75.7035 14.9999 75.6022 14.9572 75.5169 14.8719C75.4315 14.7866 75.3889 14.6852 75.3889 14.5679V12.1199H72.6049V14.5679C72.6049 14.6852 72.5622 14.7866 72.4769 14.8719C72.3915 14.9572 72.2902 14.9999 72.1729 14.9999H70.1569C70.0395 14.9999 69.9382 14.9626 69.8529 14.8879C69.7675 14.8026 69.7249 14.6959 69.7249 14.5679V7.11189C69.7249 6.99456 69.7675 6.89323 69.8529 6.80789C69.9382 6.72256 70.0395 6.67989 70.1569 6.67989H72.1729C72.2902 6.67989 72.3915 6.72256 72.4769 6.80789C72.5622 6.89323 72.6049 6.99456 72.6049 7.11189V9.63989H75.3889V7.11189C75.3889 6.99456 75.4315 6.89323 75.5169 6.80789C75.6022 6.72256 75.7035 6.67989 75.8209 6.67989H77.8369Z" fill="#FE6915"/>
<path d="M86.2271 14.9999C86.1098 14.9999 86.0085 14.9572 85.9231 14.8719C85.8378 14.7866 85.7951 14.6852 85.7951 14.5679V11.0479L82.7711 14.8239C82.6751 14.9412 82.5525 14.9999 82.4031 14.9999H80.5471C80.4298 14.9999 80.3285 14.9572 80.2431 14.8719C80.1685 14.7866 80.1311 14.6852 80.1311 14.5679V7.11189C80.1311 6.99456 80.1738 6.89323 80.2591 6.80789C80.3445 6.72256 80.4458 6.67989 80.5631 6.67989H82.5791C82.6965 6.67989 82.7978 6.72256 82.8831 6.80789C82.9685 6.89323 83.0111 6.99456 83.0111 7.11189V10.6479L86.0351 6.85589C86.1311 6.73856 86.2485 6.67989 86.3871 6.67989H88.2431C88.3605 6.67989 88.4618 6.72256 88.5471 6.80789C88.6325 6.89323 88.6751 6.99456 88.6751 7.11189V14.5679C88.6751 14.6852 88.6325 14.7866 88.5471 14.8719C88.4618 14.9572 88.3605 14.9999 88.2431 14.9999H86.2271Z" fill="#FE6915"/>
<path d="M98.6494 6.67989C98.7667 6.67989 98.868 6.72256 98.9534 6.80789C99.0387 6.89323 99.0814 6.99456 99.0814 7.11189V14.5679C99.0814 14.6852 99.0387 14.7866 98.9534 14.8719C98.868 14.9572 98.7667 14.9999 98.6494 14.9999H96.6334C96.516 14.9999 96.4147 14.9572 96.3294 14.8719C96.244 14.7866 96.2014 14.6852 96.2014 14.5679V9.15989H93.4174V14.5679C93.4174 14.6852 93.3747 14.7866 93.2894 14.8719C93.204 14.9572 93.1027 14.9999 92.9854 14.9999H90.9694C90.852 14.9999 90.7507 14.9572 90.6654 14.8719C90.58 14.7866 90.5374 14.6852 90.5374 14.5679V7.11189C90.5374 6.99456 90.58 6.89323 90.6654 6.80789C90.7507 6.72256 90.852 6.67989 90.9694 6.67989H98.6494Z" fill="#FE6915"/>
<path d="M99.7731 7.19189C99.7625 7.15989 99.7571 7.11723 99.7571 7.06389C99.7571 6.95723 99.7945 6.86656 99.8691 6.79189C99.9438 6.71723 100.034 6.67989 100.141 6.67989H102.253C102.445 6.67989 102.6 6.80789 102.717 7.06389L104.477 11.2079L106.237 7.06389C106.333 6.80789 106.488 6.67989 106.701 6.67989H108.813C108.92 6.67989 109.01 6.71723 109.085 6.79189C109.16 6.86656 109.197 6.95723 109.197 7.06389C109.197 7.11723 109.192 7.15989 109.181 7.19189L106.013 14.5999C105.661 15.3892 105.314 16.0292 104.973 16.5199C104.632 17.0106 104.232 17.3839 103.773 17.6399C103.314 17.9066 102.76 18.0399 102.109 18.0399H101.069C100.952 18.0399 100.85 17.9972 100.765 17.9119C100.68 17.8266 100.637 17.7252 100.637 17.6079V15.9919C100.637 15.8746 100.68 15.7732 100.765 15.6879C100.85 15.6026 100.952 15.5599 101.069 15.5599H101.757C102.088 15.5599 102.344 15.4906 102.525 15.3519C102.706 15.2239 102.866 14.9999 103.005 14.6799L99.7731 7.19189Z" fill="#FE6915"/>
<path d="M114.253 11.7679C114.253 12.8879 113.922 13.7359 113.261 14.3119C112.599 14.8772 111.661 15.1599 110.445 15.1599H110.189C110.071 15.1599 109.97 15.1172 109.885 15.0319C109.799 14.9466 109.757 14.8452 109.757 14.7279V13.1119C109.757 12.9946 109.799 12.8932 109.885 12.8079C109.97 12.7226 110.071 12.6799 110.189 12.6799C110.658 12.6799 110.973 12.6159 111.133 12.4879C111.293 12.3599 111.373 12.0932 111.373 11.6879V7.11189C111.373 6.99456 111.415 6.89323 111.501 6.80789C111.586 6.72256 111.687 6.67989 111.805 6.67989H118.221C118.338 6.67989 118.439 6.72256 118.525 6.80789C118.61 6.89323 118.653 6.99456 118.653 7.11189V14.5679C118.653 14.6852 118.61 14.7866 118.525 14.8719C118.439 14.9572 118.338 14.9999 118.221 14.9999H116.205C116.087 14.9999 115.986 14.9572 115.901 14.8719C115.815 14.7866 115.773 14.6852 115.773 14.5679V9.15989H114.253V11.7679Z" fill="#FE6915"/>
<path d="M127.834 6.67989C127.951 6.67989 128.053 6.72256 128.138 6.80789C128.223 6.89323 128.266 6.99456 128.266 7.11189V14.5679C128.266 14.6852 128.223 14.7866 128.138 14.8719C128.053 14.9572 127.951 14.9999 127.834 14.9999H125.818C125.701 14.9999 125.599 14.9572 125.514 14.8719C125.429 14.7866 125.386 14.6852 125.386 14.5679V12.9679H124.298L123.194 14.6959C123.151 14.7706 123.082 14.8399 122.986 14.9039C122.901 14.9679 122.799 14.9999 122.682 14.9999H120.378C120.271 14.9999 120.181 14.9626 120.106 14.8879C120.031 14.8132 119.994 14.7279 119.994 14.6319C119.994 14.5466 120.015 14.4719 120.058 14.4079L121.45 12.2479C120.693 11.6719 120.314 10.8612 120.314 9.81589C120.314 8.82389 120.65 8.05589 121.322 7.51189C121.994 6.95723 122.885 6.67989 123.994 6.67989H127.834ZM124.01 9.15989C123.733 9.15989 123.525 9.21323 123.386 9.31989C123.258 9.41589 123.194 9.58123 123.194 9.81589C123.194 10.2639 123.466 10.4879 124.01 10.4879H125.386V9.15989H124.01Z" fill="#FE6915"/>
<path d="M137.429 6.67989C137.547 6.67989 137.648 6.72256 137.733 6.80789C137.819 6.89323 137.861 6.99456 137.861 7.11189V8.72789C137.861 8.84523 137.819 8.94656 137.733 9.03189C137.648 9.11723 137.547 9.15989 137.429 9.15989H135.045V14.5679C135.045 14.6852 135.003 14.7866 134.917 14.8719C134.832 14.9572 134.731 14.9999 134.613 14.9999H132.597C132.48 14.9999 132.379 14.9572 132.293 14.8719C132.208 14.7866 132.165 14.6852 132.165 14.5679V9.15989H129.781C129.664 9.15989 129.563 9.11723 129.477 9.03189C129.392 8.94656 129.349 8.84523 129.349 8.72789V7.11189C129.349 6.99456 129.392 6.89323 129.477 6.80789C129.563 6.72256 129.664 6.67989 129.781 6.67989H137.429Z" fill="#FE6915"/>
<path d="M147.374 11.4639C147.342 12.1466 147.144 12.7706 146.782 13.3359C146.419 13.8906 145.912 14.3332 145.262 14.6639C144.611 14.9946 143.864 15.1599 143.022 15.1599C142.179 15.1599 141.432 14.9946 140.782 14.6639C140.131 14.3332 139.624 13.8906 139.262 13.3359C138.899 12.7706 138.702 12.1466 138.67 11.4639L138.654 10.8399L138.67 10.2319C138.691 9.54923 138.883 8.92523 139.246 8.35989C139.608 7.79456 140.115 7.34656 140.766 7.01589C141.427 6.68523 142.179 6.51989 143.022 6.51989C143.864 6.51989 144.611 6.68523 145.262 7.01589C145.923 7.34656 146.435 7.79456 146.798 8.35989C147.16 8.92523 147.352 9.54923 147.374 10.2319C147.384 10.3386 147.39 10.5412 147.39 10.8399C147.39 11.1492 147.384 11.3572 147.374 11.4639ZM143.022 12.6799C143.448 12.6799 143.79 12.5679 144.046 12.3439C144.312 12.1092 144.462 11.7892 144.494 11.3839C144.515 11.1706 144.526 10.9892 144.526 10.8399C144.526 10.6906 144.515 10.5092 144.494 10.2959C144.462 9.89056 144.312 9.57589 144.046 9.35189C143.79 9.11723 143.448 8.99989 143.022 8.99989C142.595 8.99989 142.248 9.11723 141.982 9.35189C141.726 9.57589 141.582 9.89056 141.55 10.2959C141.539 10.4026 141.534 10.5839 141.534 10.8399C141.534 11.0959 141.539 11.2772 141.55 11.3839C141.582 11.7892 141.726 12.1092 141.982 12.3439C142.248 12.5679 142.595 12.6799 143.022 12.6799Z" fill="#FE6915"/>
<path d="M151.761 17.6079C151.761 17.7252 151.718 17.8266 151.633 17.9119C151.548 17.9972 151.446 18.0399 151.329 18.0399H149.313C149.196 18.0399 149.094 17.9972 149.009 17.9119C148.924 17.8266 148.881 17.7252 148.881 17.6079V7.11189C148.881 6.99456 148.924 6.89323 149.009 6.80789C149.094 6.72256 149.196 6.67989 149.313 6.67989H151.249C151.366 6.67989 151.468 6.72256 151.553 6.80789C151.638 6.89323 151.681 6.99456 151.681 7.11189V7.47989C151.852 7.27723 152.012 7.11189 152.161 6.98389C152.321 6.85589 152.54 6.74923 152.817 6.66389C153.105 6.56789 153.468 6.51989 153.905 6.51989C154.918 6.51989 155.756 6.82923 156.417 7.44789C157.089 8.06656 157.446 8.97856 157.489 10.1839C157.5 10.2906 157.505 10.5039 157.505 10.8239C157.505 11.1546 157.5 11.3732 157.489 11.4799C157.446 12.6852 157.094 13.6026 156.433 14.2319C155.772 14.8506 154.929 15.1599 153.905 15.1599C153.35 15.1599 152.902 15.0639 152.561 14.8719C152.22 14.6799 151.953 14.4559 151.761 14.1999V17.6079ZM154.625 10.3919C154.593 9.97589 154.46 9.63989 154.225 9.38389C154.001 9.12789 153.654 8.99989 153.185 8.99989C152.748 8.99989 152.412 9.12256 152.177 9.36789C151.953 9.61323 151.814 9.91723 151.761 10.2799C151.74 10.4932 151.729 10.6799 151.729 10.8399C151.729 10.9999 151.74 11.1866 151.761 11.3999C151.804 11.7519 151.942 12.0559 152.177 12.3119C152.412 12.5572 152.748 12.6799 153.185 12.6799C153.654 12.6799 154.001 12.5519 154.225 12.2959C154.46 12.0399 154.593 11.7039 154.625 11.2879C154.646 11.0746 154.657 10.9252 154.657 10.8399C154.657 10.7546 154.646 10.6052 154.625 10.3919Z" fill="#FE6915"/>
<path d="M163.294 12.5999C163.774 12.5999 164.174 12.4772 164.494 12.2319C164.824 11.9866 164.99 11.6452 164.99 11.2079C164.99 10.8452 164.846 10.5519 164.558 10.3279C164.27 10.0932 163.886 9.97589 163.406 9.97589C163.246 9.97589 163.096 9.99723 162.958 10.0399C162.83 10.0826 162.67 10.1466 162.478 10.2319C162.286 10.3279 162.147 10.3759 162.062 10.3759H159.566C159.438 10.3759 159.331 10.3332 159.246 10.2479C159.16 10.1626 159.123 10.0612 159.134 9.94389L159.614 4.23189C159.624 4.11456 159.667 4.01323 159.742 3.92789C159.827 3.84256 159.928 3.79989 160.046 3.79989H166.894C167.011 3.79989 167.112 3.84256 167.198 3.92789C167.283 4.01323 167.326 4.11456 167.326 4.23189V5.92789C167.326 6.04523 167.283 6.14656 167.198 6.23189C167.112 6.31723 167.011 6.35989 166.894 6.35989H162.238L162.126 7.78389C162.574 7.53856 163.07 7.41589 163.614 7.41589C164.446 7.41589 165.187 7.56523 165.838 7.86389C166.499 8.16256 167.016 8.59989 167.39 9.17589C167.763 9.74123 167.95 10.4186 167.95 11.2079C167.95 12.0399 167.747 12.7546 167.342 13.3519C166.936 13.9386 166.382 14.3866 165.678 14.6959C164.974 15.0052 164.179 15.1599 163.294 15.1599C162.355 15.1599 161.539 15.0052 160.846 14.6959C160.152 14.3759 159.619 13.9599 159.246 13.4479C158.872 12.9252 158.675 12.3652 158.654 11.7679C158.654 11.6719 158.686 11.5919 158.75 11.5279C158.824 11.4532 158.91 11.4159 159.006 11.4159H161.038C161.283 11.4159 161.475 11.5012 161.614 11.6719C161.838 11.9599 162.062 12.1892 162.286 12.3599C162.52 12.5199 162.856 12.5999 163.294 12.5999Z" fill="#FE6915"/>
<path d="M173.762 12.5999C174.242 12.5999 174.642 12.4772 174.962 12.2319C175.293 11.9866 175.458 11.6452 175.458 11.2079C175.458 10.8452 175.314 10.5519 175.026 10.3279C174.738 10.0932 174.354 9.97589 173.874 9.97589C173.714 9.97589 173.565 9.99723 173.426 10.0399C173.298 10.0826 173.138 10.1466 172.946 10.2319C172.754 10.3279 172.616 10.3759 172.53 10.3759H170.034C169.906 10.3759 169.8 10.3332 169.714 10.2479C169.629 10.1626 169.592 10.0612 169.602 9.94389L170.082 4.23189C170.093 4.11456 170.136 4.01323 170.21 3.92789C170.296 3.84256 170.397 3.79989 170.514 3.79989H177.363C177.48 3.79989 177.581 3.84256 177.667 3.92789C177.752 4.01323 177.794 4.11456 177.794 4.23189V5.92789C177.794 6.04523 177.752 6.14656 177.667 6.23189C177.581 6.31723 177.48 6.35989 177.363 6.35989H172.706L172.594 7.78389C173.042 7.53856 173.538 7.41589 174.082 7.41589C174.914 7.41589 175.656 7.56523 176.307 7.86389C176.968 8.16256 177.485 8.59989 177.859 9.17589C178.232 9.74123 178.419 10.4186 178.419 11.2079C178.419 12.0399 178.216 12.7546 177.811 13.3519C177.405 13.9386 176.85 14.3866 176.146 14.6959C175.443 15.0052 174.648 15.1599 173.762 15.1599C172.824 15.1599 172.008 15.0052 171.314 14.6959C170.621 14.3759 170.088 13.9599 169.714 13.4479C169.341 12.9252 169.144 12.3652 169.122 11.7679C169.122 11.6719 169.154 11.5919 169.218 11.5279C169.293 11.4532 169.378 11.4159 169.474 11.4159H171.506C171.752 11.4159 171.944 11.5012 172.082 11.6719C172.306 11.9599 172.53 12.1892 172.754 12.3599C172.989 12.5199 173.325 12.5999 173.762 12.5999Z" fill="#FE6915"/>
<path d="M184.519 3.63989C185.33 3.63989 186.077 3.78923 186.759 4.08789C187.453 4.38656 188.002 4.80256 188.407 5.33589C188.813 5.86923 189.015 6.47723 189.015 7.15989C189.015 7.98123 188.727 8.69589 188.151 9.30389C188.503 9.60256 188.775 9.95456 188.967 10.3599C189.159 10.7546 189.255 11.1812 189.255 11.6399C189.255 12.3226 189.047 12.9306 188.631 13.4639C188.215 13.9972 187.645 14.4132 186.919 14.7119C186.205 15.0106 185.405 15.1599 184.519 15.1599C183.634 15.1599 182.829 15.0106 182.103 14.7119C181.389 14.4132 180.823 13.9972 180.407 13.4639C179.991 12.9306 179.783 12.3226 179.783 11.6399C179.783 10.7119 180.146 9.93323 180.871 9.30389C180.306 8.68523 180.023 7.97056 180.023 7.15989C180.023 6.47723 180.226 5.86923 180.631 5.33589C181.037 4.80256 181.581 4.38656 182.263 4.08789C182.957 3.78923 183.709 3.63989 184.519 3.63989ZM184.519 8.21589C184.989 8.21589 185.362 8.11456 185.639 7.91189C185.917 7.69856 186.055 7.43723 186.055 7.12789C186.055 6.81856 185.917 6.56256 185.639 6.35989C185.362 6.14656 184.989 6.03989 184.519 6.03989C184.05 6.03989 183.677 6.14656 183.399 6.35989C183.122 6.56256 182.983 6.81856 182.983 7.12789C182.983 7.43723 183.122 7.69856 183.399 7.91189C183.677 8.11456 184.05 8.21589 184.519 8.21589ZM184.519 12.7599C185.085 12.7599 185.522 12.6586 185.831 12.4559C186.141 12.2532 186.295 11.9919 186.295 11.6719C186.295 11.3519 186.141 11.0906 185.831 10.8879C185.522 10.6852 185.085 10.5839 184.519 10.5839C183.954 10.5839 183.517 10.6852 183.207 10.8879C182.898 11.0906 182.743 11.3519 182.743 11.6719C182.743 11.9919 182.898 12.2532 183.207 12.4559C183.517 12.6586 183.954 12.7599 184.519 12.7599Z" fill="#FE6915"/>
<path d="M46.4 30C46.3467 30 46.3 29.98 46.26 29.94C46.22 29.9 46.2 29.8533 46.2 29.8C46.2 29.7467 46.2033 29.71 46.21 29.69L48.69 23.22C48.7433 23.0733 48.85 23 49.01 23H49.69C49.85 23 49.9567 23.0733 50.01 23.22L52.48 29.69L52.5 29.8C52.5 29.8533 52.48 29.9 52.44 29.94C52.4 29.98 52.3533 30 52.3 30H51.79C51.7167 30 51.66 29.9833 51.62 29.95C51.58 29.91 51.5533 29.87 51.54 29.83L50.99 28.41H47.71L47.16 29.83C47.1467 29.87 47.1167 29.91 47.07 29.95C47.03 29.9833 46.9767 30 46.91 30H46.4ZM50.7 27.55L49.35 24L48 27.55H50.7Z" fill="#F6F6F6"/>
<path d="M53.6792 31.9C53.6126 31.9 53.5559 31.8767 53.5092 31.83C53.4692 31.79 53.4492 31.7367 53.4492 31.67V25.03C53.4492 24.9633 53.4692 24.91 53.5092 24.87C53.5559 24.8233 53.6126 24.8 53.6792 24.8H54.1392C54.2059 24.8 54.2592 24.8233 54.2992 24.87C54.3459 24.91 54.3692 24.9633 54.3692 25.03V25.47C54.7426 24.9567 55.2892 24.7 56.0092 24.7C56.7092 24.7 57.2326 24.92 57.5792 25.36C57.9326 25.8 58.1226 26.3667 58.1492 27.06C58.1559 27.1333 58.1592 27.2467 58.1592 27.4C58.1592 27.5533 58.1559 27.6667 58.1492 27.74C58.1226 28.4267 57.9326 28.9933 57.5792 29.44C57.2259 29.88 56.7026 30.1 56.0092 30.1C55.3159 30.1 54.7759 29.85 54.3892 29.35V31.67C54.3892 31.7367 54.3692 31.79 54.3292 31.83C54.2892 31.8767 54.2359 31.9 54.1692 31.9H53.6792ZM55.7992 29.29C56.2726 29.29 56.6159 29.1433 56.8292 28.85C57.0492 28.5567 57.1692 28.17 57.1892 27.69C57.1959 27.6233 57.1992 27.5267 57.1992 27.4C57.1992 26.14 56.7326 25.51 55.7992 25.51C55.3392 25.51 54.9926 25.6633 54.7592 25.97C54.5326 26.27 54.4092 26.63 54.3892 27.05L54.3792 27.43L54.3892 27.82C54.4026 28.2133 54.5292 28.5567 54.7692 28.85C55.0092 29.1433 55.3526 29.29 55.7992 29.29Z" fill="#F6F6F6"/>
<path d="M61.4763 30.1C60.7896 30.1 60.2396 29.89 59.8263 29.47C59.4196 29.0433 59.1963 28.4633 59.1563 27.73L59.1463 27.39L59.1563 27.06C59.2029 26.34 59.4296 25.7667 59.8363 25.34C60.2496 24.9133 60.7929 24.7 61.4663 24.7C62.2063 24.7 62.7796 24.9367 63.1863 25.41C63.5929 25.8767 63.7963 26.51 63.7963 27.31V27.48C63.7963 27.5467 63.7729 27.6033 63.7263 27.65C63.6863 27.69 63.6329 27.71 63.5663 27.71H60.1063V27.8C60.1263 28.2333 60.2563 28.6033 60.4963 28.91C60.7429 29.21 61.0663 29.36 61.4663 29.36C61.7729 29.36 62.0229 29.3 62.2163 29.18C62.4163 29.0533 62.5629 28.9233 62.6563 28.79C62.7163 28.71 62.7596 28.6633 62.7863 28.65C62.8196 28.63 62.8763 28.62 62.9563 28.62H63.4463C63.5063 28.62 63.5563 28.6367 63.5963 28.67C63.6363 28.7033 63.6563 28.75 63.6563 28.81C63.6563 28.9567 63.5629 29.1333 63.3763 29.34C63.1963 29.5467 62.9396 29.7267 62.6063 29.88C62.2796 30.0267 61.9029 30.1 61.4763 30.1ZM62.8463 27.02V26.99C62.8463 26.53 62.7196 26.1567 62.4663 25.87C62.2196 25.5767 61.8863 25.43 61.4663 25.43C61.0463 25.43 60.7129 25.5767 60.4663 25.87C60.2263 26.1567 60.1063 26.53 60.1063 26.99V27.02H62.8463Z" fill="#F6F6F6"/>
<path d="M65.222 30C65.1553 30 65.0986 29.98 65.052 29.94C65.012 29.8933 64.992 29.8367 64.992 29.77V25.03C64.992 24.9633 65.012 24.91 65.052 24.87C65.0986 24.8233 65.1553 24.8 65.222 24.8H65.702C65.7686 24.8 65.822 24.8233 65.862 24.87C65.9086 24.91 65.932 24.9633 65.932 25.03V26.95H68.652V25.03C68.652 24.9633 68.672 24.91 68.712 24.87C68.7586 24.8233 68.8153 24.8 68.882 24.8H69.352C69.4186 24.8 69.472 24.8233 69.512 24.87C69.5586 24.91 69.582 24.9633 69.582 25.03V29.77C69.582 29.8367 69.5586 29.8933 69.512 29.94C69.472 29.98 69.4186 30 69.352 30H68.882C68.8153 30 68.7586 29.98 68.712 29.94C68.672 29.8933 68.652 29.8367 68.652 29.77V27.75H65.932V29.77C65.932 29.8367 65.9086 29.8933 65.862 29.94C65.822 29.98 65.7686 30 65.702 30H65.222Z" fill="#F6F6F6"/>
<path d="M70.7857 31.1C70.719 31.1 70.6624 31.0767 70.6157 31.03C70.5757 30.99 70.5557 30.9367 70.5557 30.87V29.43C70.5557 29.3633 70.5757 29.31 70.6157 29.27C70.6624 29.2233 70.719 29.2 70.7857 29.2H70.8357C71.1157 29.1933 71.3257 28.96 71.4657 28.5C71.6124 28.04 71.6857 27.31 71.6857 26.31V25.03C71.6857 24.9633 71.7057 24.91 71.7457 24.87C71.7924 24.8233 71.849 24.8 71.9157 24.8H75.1057C75.1724 24.8 75.2257 24.8233 75.2657 24.87C75.3124 24.91 75.3357 24.9633 75.3357 25.03V29.18H75.8057C75.8724 29.18 75.9257 29.2033 75.9657 29.25C76.0124 29.29 76.0357 29.3433 76.0357 29.41V30.87C76.0357 30.9367 76.0124 30.99 75.9657 31.03C75.9257 31.0767 75.8724 31.1 75.8057 31.1H75.3357C75.269 31.1 75.2124 31.0767 75.1657 31.03C75.1257 30.99 75.1057 30.9367 75.1057 30.87V30H71.4857V30.87C71.4857 30.9367 71.4624 30.99 71.4157 31.03C71.3757 31.0767 71.3224 31.1 71.2557 31.1H70.7857ZM74.4057 29.18V25.6H72.5957V26.42C72.5957 27.7533 72.4057 28.68 72.0257 29.2L74.4057 29.18Z" fill="#F6F6F6"/>
<path d="M78.5318 30.1C78.2051 30.1 77.9018 30.0333 77.6218 29.9C77.3418 29.7667 77.1185 29.5867 76.9518 29.36C76.7918 29.1267 76.7118 28.87 76.7118 28.59C76.7118 28.15 76.8918 27.79 77.2518 27.51C77.6185 27.2233 78.1118 27.0367 78.7318 26.95L80.2218 26.74V26.45C80.2218 25.77 79.8318 25.43 79.0518 25.43C78.7585 25.43 78.5185 25.4933 78.3318 25.62C78.1451 25.74 78.0051 25.8833 77.9118 26.05C77.8918 26.11 77.8651 26.1533 77.8318 26.18C77.8051 26.2067 77.7651 26.22 77.7118 26.22H77.2818C77.2218 26.22 77.1685 26.2 77.1218 26.16C77.0818 26.1133 77.0618 26.06 77.0618 26C77.0685 25.84 77.1418 25.66 77.2818 25.46C77.4285 25.2533 77.6518 25.0767 77.9518 24.93C78.2518 24.7767 78.6218 24.7 79.0618 24.7C79.8085 24.7 80.3451 24.8767 80.6718 25.23C80.9985 25.5767 81.1618 26.01 81.1618 26.53V29.77C81.1618 29.8367 81.1385 29.8933 81.0918 29.94C81.0518 29.98 80.9985 30 80.9318 30H80.4718C80.4051 30 80.3485 29.98 80.3018 29.94C80.2618 29.8933 80.2418 29.8367 80.2418 29.77V29.34C80.0951 29.5533 79.8818 29.7333 79.6018 29.88C79.3218 30.0267 78.9651 30.1 78.5318 30.1ZM78.7418 29.35C79.1751 29.35 79.5285 29.21 79.8018 28.93C80.0818 28.6433 80.2218 28.2333 80.2218 27.7V27.42L79.0618 27.59C78.5885 27.6567 78.2318 27.77 77.9918 27.93C77.7518 28.0833 77.6318 28.28 77.6318 28.52C77.6318 28.7867 77.7418 28.9933 77.9618 29.14C78.1818 29.28 78.4418 29.35 78.7418 29.35Z" fill="#F6F6F6"/>
<path d="M87.1506 30.1C86.4372 30.1 85.8772 29.9 85.4706 29.5C85.0706 29.0933 84.8572 28.5267 84.8306 27.8L84.8206 27.4L84.8306 27C84.8572 26.2733 85.0706 25.71 85.4706 25.31C85.8772 24.9033 86.4372 24.7 87.1506 24.7C87.6306 24.7 88.0372 24.7867 88.3706 24.96C88.7039 25.1333 88.9506 25.3467 89.1106 25.6C89.2772 25.8533 89.3672 26.1067 89.3806 26.36C89.3872 26.4267 89.3672 26.48 89.3206 26.52C89.2739 26.56 89.2172 26.58 89.1506 26.58H88.6706C88.6039 26.58 88.5539 26.5667 88.5206 26.54C88.4872 26.5133 88.4539 26.46 88.4206 26.38C88.3072 26.06 88.1472 25.8333 87.9406 25.7C87.7339 25.56 87.4739 25.49 87.1606 25.49C86.7472 25.49 86.4172 25.62 86.1706 25.88C85.9306 26.1333 85.8006 26.5233 85.7806 27.05L85.7706 27.41L85.7806 27.75C85.8006 28.2833 85.9306 28.6767 86.1706 28.93C86.4106 29.1833 86.7406 29.31 87.1606 29.31C87.4739 29.31 87.7339 29.2433 87.9406 29.11C88.1472 28.97 88.3072 28.74 88.4206 28.42C88.4539 28.34 88.4872 28.2867 88.5206 28.26C88.5539 28.2267 88.6039 28.21 88.6706 28.21H89.1506C89.2172 28.21 89.2739 28.2333 89.3206 28.28C89.3672 28.32 89.3872 28.3733 89.3806 28.44C89.3672 28.6867 89.2772 28.94 89.1106 29.2C88.9506 29.4533 88.7039 29.6667 88.3706 29.84C88.0439 30.0133 87.6372 30.1 87.1506 30.1Z" fill="#F6F6F6"/>
<path d="M90.7981 30C90.7315 30 90.6748 29.98 90.6281 29.94C90.5881 29.8933 90.5681 29.8367 90.5681 29.77V25.03C90.5681 24.9633 90.5881 24.91 90.6281 24.87C90.6748 24.8233 90.7315 24.8 90.7981 24.8H94.7681C94.8348 24.8 94.8881 24.8233 94.9281 24.87C94.9748 24.91 94.9981 24.9633 94.9981 25.03V29.77C94.9981 29.8367 94.9748 29.8933 94.9281 29.94C94.8881 29.98 94.8348 30 94.7681 30H94.2881C94.2215 30 94.1681 29.98 94.1281 29.94C94.0881 29.8933 94.0681 29.8367 94.0681 29.77V25.6H91.5081V29.77C91.5081 29.8367 91.4848 29.8933 91.4381 29.94C91.3981 29.98 91.3448 30 91.2781 30H90.7981Z" fill="#F6F6F6"/>
<path d="M98.5661 30.1C97.8794 30.1 97.3294 29.89 96.9161 29.47C96.5094 29.0433 96.2861 28.4633 96.2461 27.73L96.2361 27.39L96.2461 27.06C96.2928 26.34 96.5194 25.7667 96.9261 25.34C97.3394 24.9133 97.8828 24.7 98.5561 24.7C99.2961 24.7 99.8694 24.9367 100.276 25.41C100.683 25.8767 100.886 26.51 100.886 27.31V27.48C100.886 27.5467 100.863 27.6033 100.816 27.65C100.776 27.69 100.723 27.71 100.656 27.71H97.1961V27.8C97.2161 28.2333 97.3461 28.6033 97.5861 28.91C97.8328 29.21 98.1561 29.36 98.5561 29.36C98.8628 29.36 99.1128 29.3 99.3061 29.18C99.5061 29.0533 99.6528 28.9233 99.7461 28.79C99.8061 28.71 99.8494 28.6633 99.8761 28.65C99.9094 28.63 99.9661 28.62 100.046 28.62H100.536C100.596 28.62 100.646 28.6367 100.686 28.67C100.726 28.7033 100.746 28.75 100.746 28.81C100.746 28.9567 100.653 29.1333 100.466 29.34C100.286 29.5467 100.029 29.7267 99.6961 29.88C99.3694 30.0267 98.9928 30.1 98.5661 30.1ZM99.9361 27.02V26.99C99.9361 26.53 99.8094 26.1567 99.5561 25.87C99.3094 25.5767 98.9761 25.43 98.5561 25.43C98.1361 25.43 97.8028 25.5767 97.5561 25.87C97.3161 26.1567 97.1961 26.53 97.1961 26.99V27.02H99.9361Z" fill="#F6F6F6"/>
<path d="M106.512 31.26C106.445 31.26 106.388 31.24 106.342 31.2C106.302 31.16 106.282 31.1033 106.282 31.03V30H102.312C102.245 30 102.188 29.98 102.142 29.94C102.102 29.8933 102.082 29.8367 102.082 29.77V25.03C102.082 24.9633 102.102 24.91 102.142 24.87C102.188 24.8233 102.245 24.8 102.312 24.8H102.792C102.858 24.8 102.912 24.8233 102.952 24.87C102.998 24.91 103.022 24.9633 103.022 25.03V29.2H105.582V25.03C105.582 24.9633 105.602 24.91 105.642 24.87C105.682 24.8233 105.735 24.8 105.802 24.8H106.282C106.348 24.8 106.402 24.8233 106.442 24.87C106.488 24.91 106.512 24.9633 106.512 25.03L106.502 29.2H106.982C107.048 29.2 107.102 29.2233 107.142 29.27C107.188 29.31 107.212 29.3633 107.212 29.43V31.03C107.212 31.0967 107.188 31.15 107.142 31.19C107.102 31.2367 107.048 31.26 106.982 31.26H106.512Z" fill="#F6F6F6"/>
<path d="M112.305 30C112.238 30 112.181 29.98 112.135 29.94C112.095 29.8933 112.075 29.8367 112.075 29.77V25.6H110.335C110.268 25.6 110.211 25.58 110.165 25.54C110.125 25.4933 110.105 25.4367 110.105 25.37V25.03C110.105 24.9633 110.125 24.91 110.165 24.87C110.211 24.8233 110.268 24.8 110.335 24.8H114.735C114.801 24.8 114.855 24.8233 114.895 24.87C114.941 24.91 114.965 24.9633 114.965 25.03V25.37C114.965 25.4367 114.941 25.4933 114.895 25.54C114.855 25.58 114.801 25.6 114.735 25.6H112.995V29.77C112.995 29.8367 112.975 29.8933 112.935 29.94C112.895 29.98 112.841 30 112.775 30H112.305Z" fill="#F6F6F6"/>
<path d="M117.912 30.1C117.225 30.1 116.675 29.89 116.262 29.47C115.855 29.0433 115.632 28.4633 115.592 27.73L115.582 27.39L115.592 27.06C115.638 26.34 115.865 25.7667 116.272 25.34C116.685 24.9133 117.228 24.7 117.902 24.7C118.642 24.7 119.215 24.9367 119.622 25.41C120.028 25.8767 120.232 26.51 120.232 27.31V27.48C120.232 27.5467 120.208 27.6033 120.162 27.65C120.122 27.69 120.068 27.71 120.002 27.71H116.542V27.8C116.562 28.2333 116.692 28.6033 116.932 28.91C117.178 29.21 117.502 29.36 117.902 29.36C118.208 29.36 118.458 29.3 118.652 29.18C118.852 29.0533 118.998 28.9233 119.092 28.79C119.152 28.71 119.195 28.6633 119.222 28.65C119.255 28.63 119.312 28.62 119.392 28.62H119.882C119.942 28.62 119.992 28.6367 120.032 28.67C120.072 28.7033 120.092 28.75 120.092 28.81C120.092 28.9567 119.998 29.1333 119.812 29.34C119.632 29.5467 119.375 29.7267 119.042 29.88C118.715 30.0267 118.338 30.1 117.912 30.1ZM119.282 27.02V26.99C119.282 26.53 119.155 26.1567 118.902 25.87C118.655 25.5767 118.322 25.43 117.902 25.43C117.482 25.43 117.148 25.5767 116.902 25.87C116.662 26.1567 116.542 26.53 116.542 26.99V27.02H119.282Z" fill="#F6F6F6"/>
<path d="M121.188 30C121.134 30 121.084 29.98 121.038 29.94C120.998 29.9 120.978 29.85 120.978 29.79C120.978 29.73 121.001 29.67 121.048 29.61L122.788 27.34L121.158 25.19C121.111 25.1367 121.088 25.0767 121.088 25.01C121.088 24.95 121.108 24.9 121.148 24.86C121.188 24.82 121.238 24.8 121.298 24.8H121.808C121.908 24.8 121.994 24.8533 122.068 24.96L123.398 26.69L124.728 24.97C124.768 24.9167 124.804 24.8767 124.838 24.85C124.878 24.8167 124.928 24.8 124.988 24.8H125.478C125.538 24.8 125.588 24.82 125.628 24.86C125.668 24.9 125.688 24.95 125.688 25.01C125.688 25.0767 125.664 25.1367 125.618 25.19L123.968 27.36L125.708 29.61C125.754 29.67 125.778 29.73 125.778 29.79C125.778 29.85 125.758 29.9 125.718 29.94C125.678 29.98 125.628 30 125.568 30H125.038C124.938 30 124.851 29.95 124.778 29.85L123.378 28.02L121.958 29.85C121.918 29.8967 121.878 29.9333 121.838 29.96C121.804 29.9867 121.758 30 121.698 30H121.188Z" fill="#F6F6F6"/>
<path d="M127.048 30C126.981 30 126.925 29.98 126.878 29.94C126.838 29.8933 126.818 29.8367 126.818 29.77V25.03C126.818 24.9633 126.838 24.91 126.878 24.87C126.925 24.8233 126.981 24.8 127.048 24.8H127.528C127.595 24.8 127.648 24.8233 127.688 24.87C127.735 24.91 127.758 24.9633 127.758 25.03V26.95H130.478V25.03C130.478 24.9633 130.498 24.91 130.538 24.87C130.585 24.8233 130.641 24.8 130.708 24.8H131.178C131.245 24.8 131.298 24.8233 131.338 24.87C131.385 24.91 131.408 24.9633 131.408 25.03V29.77C131.408 29.8367 131.385 29.8933 131.338 29.94C131.298 29.98 131.245 30 131.178 30H130.708C130.641 30 130.585 29.98 130.538 29.94C130.498 29.8933 130.478 29.8367 130.478 29.77V27.75H127.758V29.77C127.758 29.8367 127.735 29.8933 127.688 29.94C127.648 29.98 127.595 30 127.528 30H127.048Z" fill="#F6F6F6"/>
<path d="M137.332 24.8C137.385 24.8 137.432 24.82 137.472 24.86C137.519 24.9 137.542 24.9467 137.542 25V29.77C137.542 29.8367 137.519 29.8933 137.472 29.94C137.432 29.98 137.379 30 137.312 30H136.842C136.775 30 136.719 29.98 136.672 29.94C136.632 29.8933 136.612 29.8367 136.612 29.77V26.14L133.842 29.85C133.769 29.95 133.682 30 133.582 30H133.132C133.072 30 133.019 29.98 132.972 29.94C132.932 29.8933 132.912 29.8433 132.912 29.79V25.03C132.912 24.9633 132.932 24.91 132.972 24.87C133.019 24.8233 133.075 24.8 133.142 24.8H133.622C133.689 24.8 133.742 24.8233 133.782 24.87C133.829 24.91 133.852 24.9633 133.852 25.03V28.64L136.612 24.95C136.685 24.85 136.772 24.8 136.872 24.8H137.332Z" fill="#F6F6F6"/>
<path d="M143.346 29.71C143.379 29.75 143.396 29.7933 143.396 29.84C143.396 29.8867 143.376 29.9267 143.336 29.96C143.302 29.9867 143.256 30 143.196 30H142.586C142.479 30 142.392 29.95 142.326 29.85L140.876 27.76H139.936V29.77C139.936 29.8367 139.912 29.8933 139.866 29.94C139.826 29.98 139.772 30 139.706 30H139.236C139.169 30 139.112 29.98 139.066 29.94C139.026 29.8933 139.006 29.8367 139.006 29.77V25.03C139.006 24.9633 139.026 24.91 139.066 24.87C139.112 24.8233 139.169 24.8 139.236 24.8H139.706C139.772 24.8 139.826 24.8233 139.866 24.87C139.912 24.91 139.936 24.9633 139.936 25.03V26.95H140.856L142.196 24.95C142.276 24.85 142.366 24.8 142.466 24.8H142.986C143.046 24.8 143.096 24.8167 143.136 24.85C143.176 24.8767 143.196 24.9133 143.196 24.96C143.196 24.9933 143.179 25.0333 143.146 25.08L141.656 27.29L143.346 29.71Z" fill="#F6F6F6"/>
<path d="M148.787 24.8C148.84 24.8 148.887 24.82 148.927 24.86C148.974 24.9 148.997 24.9467 148.997 25V29.77C148.997 29.8367 148.974 29.8933 148.927 29.94C148.887 29.98 148.834 30 148.767 30H148.297C148.23 30 148.174 29.98 148.127 29.94C148.087 29.8933 148.067 29.8367 148.067 29.77V26.14L145.297 29.85C145.224 29.95 145.137 30 145.037 30H144.587C144.527 30 144.474 29.98 144.427 29.94C144.387 29.8933 144.367 29.8433 144.367 29.79V25.03C144.367 24.9633 144.387 24.91 144.427 24.87C144.474 24.8233 144.53 24.8 144.597 24.8H145.077C145.144 24.8 145.197 24.8233 145.237 24.87C145.284 24.91 145.307 24.9633 145.307 25.03V28.64L148.067 24.95C148.14 24.85 148.227 24.8 148.327 24.8H148.787Z" fill="#F6F6F6"/>
<path fill-rule="evenodd" clip-rule="evenodd" d="M-7.03438e-08 28.1235C0.154581 28.2052 0.320764 28.2461 0.498549 28.2461H5.4024C5.70208 28.2461 5.94727 28.1502 6.13797 27.9584C6.32868 27.7392 6.42403 27.4926 6.42403 27.2186V11.8065L11.0418 20.3962C11.2053 20.6976 11.396 20.9305 11.6139 21.0949C11.8319 21.2593 12.1179 21.3414 12.4721 21.3414H14.5971C15.1965 21.3414 15.6732 21.0264 16.0274 20.3962L20.6043 11.8065V27.2186C20.6043 27.52 20.6997 27.7666 20.8904 27.9584C21.1083 28.1502 21.3671 28.2461 21.6668 28.2461H26.5298C26.8295 28.2461 27.0747 28.1502 27.2654 27.9584C27.4833 27.7666 27.5923 27.52 27.5923 27.2186V0.504307C27.5923 0.314462 27.5491 0.14636 27.4626 -2.90293e-08L32.2105 0C33.1988 0 34 0.801175 34 1.78947V32.2105C34 33.1988 33.1988 34 32.2105 34H1.78947C0.801176 34 0 33.1988 0 32.2105L-7.03438e-08 28.1235ZM20.9725 1.18293e-07H6.0967C6.18871 0.109739 6.27058 0.236742 6.3423 0.381009L13.5346 13.3272L20.7269 0.381009C20.7986 0.236742 20.8805 0.109739 20.9725 1.18293e-07Z" fill="#FE6915"/>
</svg>
