<svg width="155" height="28" viewBox="0 0 155 28" fill="none" xmlns="http://www.w3.org/2000/svg">
<path d="M41.0155 7.63543V11.9968C41.0155 12.0935 40.9806 12.1769 40.9107 12.2472C40.8408 12.3175 40.7578 12.3526 40.6617 12.3526H38.9451C38.849 12.3526 38.766 12.3175 38.6961 12.2472C38.6263 12.1769 38.5913 12.0935 38.5913 11.9968V3.48484C38.5913 3.38822 38.6263 3.30477 38.6961 3.23449C38.766 3.16422 38.849 3.12908 38.9451 3.12908H40.4652C40.7098 3.12908 40.8976 3.24767 41.0286 3.48484L43.1515 7.13473L45.2743 3.48484C45.4054 3.24767 45.5932 3.12908 45.8378 3.12908H47.3579C47.454 3.12908 47.537 3.16422 47.6068 3.23449C47.6767 3.30477 47.7117 3.38822 47.7117 3.48484V11.9968C47.7117 12.0935 47.6767 12.1769 47.6068 12.2472C47.537 12.3175 47.454 12.3526 47.3579 12.3526H45.6412C45.5451 12.3526 45.4622 12.3175 45.3923 12.2472C45.3224 12.1769 45.2874 12.0935 45.2874 11.9968V7.63543L44.0557 9.80955C43.9945 9.90618 43.9246 9.98524 43.846 10.0467C43.7761 10.1082 43.6844 10.139 43.5708 10.139H42.7322C42.6186 10.139 42.5225 10.1082 42.4439 10.0467C42.374 9.98524 42.3085 9.90618 42.2473 9.80955L41.0155 7.63543Z" fill="#FE6915"/>
<path d="M53.2931 7.87261C53.2931 7.38947 53.0398 7.1479 52.5331 7.1479C52.2448 7.1479 52.009 7.22696 51.8255 7.38508C51.7556 7.45535 51.6857 7.49928 51.6158 7.51684C51.5459 7.53441 51.4586 7.5432 51.3538 7.5432H49.6896C49.6022 7.5432 49.5279 7.51684 49.4668 7.46414C49.4144 7.41143 49.3925 7.34116 49.4013 7.25331C49.4275 6.981 49.576 6.6999 49.8468 6.41002C50.1264 6.11135 50.502 5.86539 50.9737 5.67214C51.4455 5.4701 51.9653 5.36908 52.5331 5.36908C53.5727 5.36908 54.3502 5.60626 54.8656 6.08061C55.3898 6.55496 55.6519 7.19622 55.6519 8.00437V11.9968C55.6519 12.0935 55.6169 12.1769 55.547 12.2472C55.4771 12.3175 55.3941 12.3526 55.2981 12.3526H53.6469C53.5509 12.3526 53.4679 12.3175 53.398 12.2472C53.3281 12.1769 53.2931 12.0935 53.2931 11.9968V11.6279C53.066 11.909 52.7952 12.1242 52.4807 12.2736C52.1662 12.4141 51.7687 12.4844 51.2882 12.4844C50.5544 12.4844 49.9778 12.2911 49.5585 11.9046C49.1479 11.5181 48.9426 11.0174 48.9426 10.4025C48.9426 9.81394 49.1698 9.33081 49.624 8.95308C50.0783 8.57535 50.7903 8.30304 51.76 8.13614L53.2931 7.87261ZM52.0876 9.62508C51.843 9.669 51.6508 9.74806 51.511 9.86226C51.3712 9.96767 51.3013 10.0994 51.3013 10.2576C51.3013 10.5562 51.511 10.7056 51.9303 10.7056C52.3147 10.7056 52.6379 10.5826 52.9 10.3366C53.1621 10.0906 53.2931 9.79198 53.2931 9.44061L52.0876 9.62508Z" fill="#FE6915"/>
<path d="M63.7484 5.50084C63.8445 5.50084 63.9275 5.53598 63.9973 5.60626C64.0672 5.67653 64.1022 5.75998 64.1022 5.85661V11.9968C64.1022 12.0935 64.0672 12.1769 63.9973 12.2472C63.9275 12.3175 63.8445 12.3526 63.7484 12.3526H62.0973C62.0012 12.3526 61.9182 12.3175 61.8483 12.2472C61.7784 12.1769 61.7435 12.0935 61.7435 11.9968V9.98084H59.4634V11.9968C59.4634 12.0935 59.4284 12.1769 59.3585 12.2472C59.2887 12.3175 59.2057 12.3526 59.1096 12.3526H57.4585C57.3624 12.3526 57.2794 12.3219 57.2095 12.2604C57.1396 12.1901 57.1047 12.1023 57.1047 11.9968V5.85661C57.1047 5.75998 57.1396 5.67653 57.2095 5.60626C57.2794 5.53598 57.3624 5.50084 57.4585 5.50084H59.1096C59.2057 5.50084 59.2887 5.53598 59.3585 5.60626C59.4284 5.67653 59.4634 5.75998 59.4634 5.85661V7.93849H61.7435V5.85661C61.7435 5.75998 61.7784 5.67653 61.8483 5.60626C61.9182 5.53598 62.0012 5.50084 62.0973 5.50084H63.7484Z" fill="#FE6915"/>
<path d="M70.62 12.3526C70.5239 12.3526 70.4409 12.3175 70.371 12.2472C70.3011 12.1769 70.2662 12.0935 70.2662 11.9968V9.09802L67.7895 12.2077C67.7109 12.3043 67.6104 12.3526 67.4881 12.3526H65.9681C65.872 12.3526 65.789 12.3175 65.7191 12.2472C65.6579 12.1769 65.6274 12.0935 65.6274 11.9968V5.85661C65.6274 5.75998 65.6623 5.67653 65.7322 5.60626C65.8021 5.53598 65.8851 5.50084 65.9812 5.50084H67.6323C67.7284 5.50084 67.8114 5.53598 67.8812 5.60626C67.9511 5.67653 67.9861 5.75998 67.9861 5.85661V8.76861L70.4627 5.64579C70.5413 5.54916 70.6374 5.50084 70.751 5.50084H72.2711C72.3672 5.50084 72.4502 5.53598 72.52 5.60626C72.5899 5.67653 72.6249 5.75998 72.6249 5.85661V11.9968C72.6249 12.0935 72.5899 12.1769 72.52 12.2472C72.4502 12.3175 72.3672 12.3526 72.2711 12.3526H70.62Z" fill="#FE6915"/>
<path d="M80.7938 5.50084C80.8899 5.50084 80.9729 5.53598 81.0427 5.60626C81.1126 5.67653 81.1476 5.75998 81.1476 5.85661V11.9968C81.1476 12.0935 81.1126 12.1769 81.0427 12.2472C80.9729 12.3175 80.8899 12.3526 80.7938 12.3526H79.1427C79.0466 12.3526 78.9636 12.3175 78.8937 12.2472C78.8238 12.1769 78.7889 12.0935 78.7889 11.9968V7.5432H76.5088V11.9968C76.5088 12.0935 76.4738 12.1769 76.4039 12.2472C76.3341 12.3175 76.2511 12.3526 76.155 12.3526H74.5039C74.4078 12.3526 74.3248 12.3175 74.2549 12.2472C74.185 12.1769 74.1501 12.0935 74.1501 11.9968V5.85661C74.1501 5.75998 74.185 5.67653 74.2549 5.60626C74.3248 5.53598 74.4078 5.50084 74.5039 5.50084H80.7938Z" fill="#FE6915"/>
<path d="M81.7141 5.92249C81.7054 5.89614 81.701 5.861 81.701 5.81708C81.701 5.72924 81.7316 5.65457 81.7927 5.59308C81.8539 5.53159 81.9282 5.50084 82.0155 5.50084H83.7452C83.9025 5.50084 84.0292 5.60626 84.1252 5.81708L85.5667 9.22979L87.0081 5.81708C87.0867 5.60626 87.2134 5.50084 87.3881 5.50084H89.1179C89.2052 5.50084 89.2795 5.53159 89.3406 5.59308C89.4018 5.65457 89.4324 5.72924 89.4324 5.81708C89.4324 5.861 89.428 5.89614 89.4193 5.92249L86.8247 12.0232C86.5364 12.6732 86.2525 13.2003 85.9729 13.6044C85.6934 14.0085 85.3658 14.3159 84.9901 14.5267C84.6145 14.7463 84.1602 14.8561 83.6273 14.8561H82.7755C82.6794 14.8561 82.5965 14.821 82.5266 14.7507C82.4567 14.6805 82.4217 14.597 82.4217 14.5004V13.1696C82.4217 13.0729 82.4567 12.9895 82.5266 12.9192C82.5965 12.8489 82.6794 12.8138 82.7755 12.8138H83.339C83.6098 12.8138 83.8195 12.7567 83.968 12.6425C84.1165 12.5371 84.2476 12.3526 84.3611 12.0891L81.7141 5.92249Z" fill="#FE6915"/>
<path d="M93.5729 9.69096C93.5729 10.6133 93.3021 11.3117 92.7605 11.786C92.2188 12.2516 91.4501 12.4844 90.4542 12.4844H90.2445C90.1484 12.4844 90.0654 12.4492 89.9955 12.379C89.9256 12.3087 89.8907 12.2252 89.8907 12.1286V10.7978C89.8907 10.7012 89.9256 10.6177 89.9955 10.5474C90.0654 10.4772 90.1484 10.442 90.2445 10.442C90.6289 10.442 90.8866 10.3893 91.0176 10.2839C91.1487 10.1785 91.2142 9.95888 91.2142 9.62508V5.85661C91.2142 5.75998 91.2491 5.67653 91.319 5.60626C91.3889 5.53598 91.4719 5.50084 91.568 5.50084H96.8227C96.9188 5.50084 97.0018 5.53598 97.0717 5.60626C97.1415 5.67653 97.1765 5.75998 97.1765 5.85661V11.9968C97.1765 12.0935 97.1415 12.1769 97.0717 12.2472C97.0018 12.3175 96.9188 12.3526 96.8227 12.3526H95.1716C95.0755 12.3526 94.9925 12.3175 94.9226 12.2472C94.8527 12.1769 94.8178 12.0935 94.8178 11.9968V7.5432H93.5729V9.69096Z" fill="#FE6915"/>
<path d="M104.696 5.50084C104.792 5.50084 104.875 5.53598 104.945 5.60626C105.015 5.67653 105.05 5.75998 105.05 5.85661V11.9968C105.05 12.0935 105.015 12.1769 104.945 12.2472C104.875 12.3175 104.792 12.3526 104.696 12.3526H103.045C102.949 12.3526 102.866 12.3175 102.796 12.2472C102.726 12.1769 102.691 12.0935 102.691 11.9968V10.6792H101.8L100.896 12.1023C100.861 12.1637 100.804 12.2208 100.726 12.2736C100.656 12.3263 100.573 12.3526 100.477 12.3526H98.5896C98.5022 12.3526 98.428 12.3219 98.3668 12.2604C98.3057 12.1989 98.2751 12.1286 98.2751 12.0496C98.2751 11.9793 98.2925 11.9178 98.3275 11.8651L99.4675 10.0863C98.8473 9.6119 98.5372 8.9443 98.5372 8.08343C98.5372 7.26649 98.8123 6.63402 99.3627 6.18602C99.9131 5.72924 100.643 5.50084 101.551 5.50084H104.696ZM101.564 7.5432C101.337 7.5432 101.167 7.58712 101.053 7.67496C100.948 7.75402 100.896 7.89018 100.896 8.08343C100.896 8.45237 101.119 8.63684 101.564 8.63684H102.691V7.5432H101.564Z" fill="#FE6915"/>
<path d="M112.555 5.50084C112.651 5.50084 112.734 5.53598 112.803 5.60626C112.873 5.67653 112.908 5.75998 112.908 5.85661V7.18743C112.908 7.28406 112.873 7.36751 112.803 7.43779C112.734 7.50806 112.651 7.5432 112.555 7.5432H110.602V11.9968C110.602 12.0935 110.567 12.1769 110.497 12.2472C110.427 12.3175 110.344 12.3526 110.248 12.3526H108.597C108.501 12.3526 108.418 12.3175 108.348 12.2472C108.278 12.1769 108.243 12.0935 108.243 11.9968V7.5432H106.291C106.195 7.5432 106.112 7.50806 106.042 7.43779C105.972 7.36751 105.937 7.28406 105.937 7.18743V5.85661C105.937 5.75998 105.972 5.67653 106.042 5.60626C106.112 5.53598 106.195 5.50084 106.291 5.50084H112.555Z" fill="#FE6915"/>
<path d="M120.699 9.44061C120.673 10.0028 120.511 10.5167 120.214 10.9823C119.917 11.439 119.502 11.8036 118.969 12.0759C118.436 12.3482 117.825 12.4844 117.135 12.4844C116.445 12.4844 115.833 12.3482 115.3 12.0759C114.767 11.8036 114.352 11.439 114.055 10.9823C113.758 10.5167 113.597 10.0028 113.57 9.44061L113.557 8.92673L113.57 8.42602C113.588 7.86383 113.745 7.34994 114.042 6.88437C114.339 6.41881 114.754 6.04986 115.287 5.77755C115.829 5.50524 116.445 5.36908 117.135 5.36908C117.825 5.36908 118.436 5.50524 118.969 5.77755C119.511 6.04986 119.93 6.41881 120.227 6.88437C120.524 7.34994 120.681 7.86383 120.699 8.42602C120.708 8.51386 120.712 8.68077 120.712 8.92673C120.712 9.18147 120.708 9.35277 120.699 9.44061ZM117.135 10.442C117.484 10.442 117.764 10.3498 117.973 10.1653C118.192 9.97206 118.314 9.70853 118.34 9.37473C118.358 9.19904 118.366 9.04971 118.366 8.92673C118.366 8.80375 118.358 8.65441 118.34 8.47873C118.314 8.14492 118.192 7.88579 117.973 7.70131C117.764 7.50806 117.484 7.41143 117.135 7.41143C116.785 7.41143 116.501 7.50806 116.283 7.70131C116.073 7.88579 115.955 8.14492 115.929 8.47873C115.92 8.56657 115.916 8.7159 115.916 8.92673C115.916 9.13755 115.92 9.28688 115.929 9.37473C115.955 9.70853 116.073 9.97206 116.283 10.1653C116.501 10.3498 116.785 10.442 117.135 10.442Z" fill="#FE6915"/>
<path d="M124.292 14.5004C124.292 14.597 124.257 14.6805 124.187 14.7507C124.117 14.821 124.034 14.8561 123.938 14.8561H122.287C122.191 14.8561 122.108 14.821 122.038 14.7507C121.968 14.6805 121.933 14.597 121.933 14.5004V5.85661C121.933 5.75998 121.968 5.67653 122.038 5.60626C122.108 5.53598 122.191 5.50084 122.287 5.50084H123.873C123.969 5.50084 124.052 5.53598 124.122 5.60626C124.192 5.67653 124.227 5.75998 124.227 5.85661V6.15967C124.366 5.99277 124.497 5.85661 124.62 5.7512C124.751 5.64579 124.93 5.55794 125.157 5.48767C125.393 5.40861 125.69 5.36908 126.048 5.36908C126.878 5.36908 127.564 5.62382 128.105 6.13331C128.656 6.64281 128.948 7.39386 128.983 8.38649C128.992 8.47434 128.997 8.65002 128.997 8.91355C128.997 9.18586 128.992 9.36594 128.983 9.45379C128.948 10.4464 128.66 11.2019 128.119 11.7201C127.577 12.2296 126.887 12.4844 126.048 12.4844C125.594 12.4844 125.227 12.4053 124.947 12.2472C124.668 12.0891 124.449 11.9046 124.292 11.6938V14.5004ZM126.638 8.55779C126.612 8.2152 126.502 7.93849 126.31 7.72767C126.127 7.51684 125.843 7.41143 125.458 7.41143C125.1 7.41143 124.825 7.51245 124.633 7.71449C124.449 7.91653 124.336 8.16688 124.292 8.46555C124.275 8.64124 124.266 8.79496 124.266 8.92673C124.266 9.05849 124.275 9.21222 124.292 9.3879C124.327 9.67779 124.441 9.92814 124.633 10.139C124.825 10.341 125.1 10.442 125.458 10.442C125.843 10.442 126.127 10.3366 126.31 10.1258C126.502 9.91496 126.612 9.63826 126.638 9.29567C126.655 9.11998 126.664 8.997 126.664 8.92673C126.664 8.85645 126.655 8.73347 126.638 8.55779Z" fill="#FE6915"/>
<path d="M133.737 10.3761C134.131 10.3761 134.458 10.2751 134.72 10.0731C134.991 9.87104 135.126 9.58994 135.126 9.22979C135.126 8.93112 135.008 8.68955 134.773 8.50508C134.537 8.31182 134.222 8.2152 133.829 8.2152C133.698 8.2152 133.576 8.23277 133.462 8.2679C133.357 8.30304 133.226 8.35575 133.069 8.42602C132.912 8.50508 132.798 8.54461 132.728 8.54461H130.684C130.579 8.54461 130.492 8.50947 130.422 8.4392C130.352 8.36892 130.322 8.28547 130.33 8.18885L130.723 3.48484C130.732 3.38822 130.767 3.30477 130.828 3.23449C130.898 3.16422 130.981 3.12908 131.077 3.12908H136.686C136.782 3.12908 136.865 3.16422 136.935 3.23449C137.005 3.30477 137.04 3.38822 137.04 3.48484V4.88155C137.04 4.97818 137.005 5.06163 136.935 5.1319C136.865 5.20218 136.782 5.23731 136.686 5.23731H132.873L132.781 6.41002C133.148 6.20798 133.554 6.10696 133.999 6.10696C134.681 6.10696 135.288 6.22994 135.821 6.4759C136.363 6.72186 136.786 7.08202 137.092 7.55637C137.398 8.02194 137.551 8.57975 137.551 9.22979C137.551 9.91496 137.385 10.5035 137.053 10.9954C136.721 11.4786 136.266 11.8475 135.69 12.1023C135.113 12.357 134.462 12.4844 133.737 12.4844C132.969 12.4844 132.3 12.357 131.732 12.1023C131.165 11.8387 130.728 11.4961 130.422 11.0745C130.116 10.6441 129.955 10.1829 129.937 9.69096C129.937 9.6119 129.963 9.54602 130.016 9.49332C130.077 9.43183 130.147 9.40108 130.226 9.40108H131.89C132.091 9.40108 132.248 9.47135 132.361 9.6119C132.545 9.84908 132.728 10.0379 132.912 10.1785C133.104 10.3103 133.379 10.3761 133.737 10.3761Z" fill="#FE6915"/>
<path d="M142.311 10.3761C142.704 10.3761 143.032 10.2751 143.294 10.0731C143.565 9.87104 143.7 9.58994 143.7 9.22979C143.7 8.93112 143.582 8.68955 143.346 8.50508C143.111 8.31182 142.796 8.2152 142.403 8.2152C142.272 8.2152 142.15 8.23277 142.036 8.2679C141.931 8.30304 141.8 8.35575 141.643 8.42602C141.486 8.50508 141.372 8.54461 141.302 8.54461H139.258C139.153 8.54461 139.066 8.50947 138.996 8.4392C138.926 8.36892 138.896 8.28547 138.904 8.18885L139.297 3.48484C139.306 3.38822 139.341 3.30477 139.402 3.23449C139.472 3.16422 139.555 3.12908 139.651 3.12908H145.26C145.356 3.12908 145.439 3.16422 145.509 3.23449C145.579 3.30477 145.613 3.38822 145.613 3.48484V4.88155C145.613 4.97818 145.579 5.06163 145.509 5.1319C145.439 5.20218 145.356 5.23731 145.26 5.23731H141.446L141.355 6.41002C141.722 6.20798 142.128 6.10696 142.573 6.10696C143.255 6.10696 143.862 6.22994 144.395 6.4759C144.936 6.72186 145.36 7.08202 145.666 7.55637C145.972 8.02194 146.125 8.57975 146.125 9.22979C146.125 9.91496 145.959 10.5035 145.627 10.9954C145.295 11.4786 144.84 11.8475 144.264 12.1023C143.687 12.357 143.036 12.4844 142.311 12.4844C141.543 12.4844 140.874 12.357 140.306 12.1023C139.739 11.8387 139.302 11.4961 138.996 11.0745C138.69 10.6441 138.529 10.1829 138.511 9.69096C138.511 9.6119 138.537 9.54602 138.59 9.49332C138.651 9.43183 138.721 9.40108 138.799 9.40108H140.464C140.665 9.40108 140.822 9.47135 140.935 9.6119C141.119 9.84908 141.302 10.0379 141.486 10.1785C141.678 10.3103 141.953 10.3761 142.311 10.3761Z" fill="#FE6915"/>
<path d="M151.121 2.99731C151.785 2.99731 152.396 3.12029 152.956 3.36626C153.523 3.61222 153.973 3.9548 154.305 4.39402C154.637 4.83324 154.803 5.33394 154.803 5.89614C154.803 6.57253 154.567 7.16108 154.096 7.66179C154.384 7.90775 154.607 8.19763 154.764 8.53143C154.921 8.85645 155 9.20782 155 9.58555C155 10.1477 154.829 10.6485 154.489 11.0877C154.148 11.5269 153.681 11.8695 153.087 12.1154C152.501 12.3614 151.846 12.4844 151.121 12.4844C150.396 12.4844 149.736 12.3614 149.142 12.1154C148.557 11.8695 148.094 11.5269 147.753 11.0877C147.413 10.6485 147.242 10.1477 147.242 9.58555C147.242 8.82131 147.539 8.18006 148.133 7.66179C147.67 7.1523 147.439 6.56375 147.439 5.89614C147.439 5.33394 147.605 4.83324 147.937 4.39402C148.269 3.9548 148.714 3.61222 149.273 3.36626C149.841 3.12029 150.457 2.99731 151.121 2.99731ZM151.121 6.76579C151.505 6.76579 151.811 6.68233 152.038 6.51543C152.265 6.33975 152.379 6.12453 152.379 5.86979C152.379 5.61504 152.265 5.40422 152.038 5.23731C151.811 5.06163 151.505 4.97379 151.121 4.97379C150.737 4.97379 150.431 5.06163 150.204 5.23731C149.977 5.40422 149.863 5.61504 149.863 5.86979C149.863 6.12453 149.977 6.33975 150.204 6.51543C150.431 6.68233 150.737 6.76579 151.121 6.76579ZM151.121 10.5079C151.584 10.5079 151.942 10.4245 152.196 10.2576C152.449 10.0906 152.576 9.87543 152.576 9.6119C152.576 9.34837 152.449 9.13316 152.196 8.96626C151.942 8.79936 151.584 8.7159 151.121 8.7159C150.658 8.7159 150.3 8.79936 150.047 8.96626C149.793 9.13316 149.667 9.34837 149.667 9.6119C149.667 9.87543 149.793 10.0906 150.047 10.2576C150.3 10.4245 150.658 10.5079 151.121 10.5079Z" fill="#FE6915"/>
<path d="M38.0014 24.7061C37.9578 24.7061 37.9195 24.6896 37.8868 24.6567C37.854 24.6238 37.8376 24.5853 37.8376 24.5414C37.8376 24.4975 37.8404 24.4673 37.8458 24.4508L39.877 19.1226C39.9206 19.0018 40.008 18.9414 40.139 18.9414H40.6959C40.827 18.9414 40.9143 19.0018 40.958 19.1226L42.981 24.4508L42.9973 24.5414C42.9973 24.5853 42.981 24.6238 42.9482 24.6567C42.9154 24.6896 42.8772 24.7061 42.8335 24.7061H42.4158C42.3558 24.7061 42.3094 24.6924 42.2766 24.6649C42.2439 24.632 42.222 24.5991 42.2111 24.5661L41.7606 23.3967H39.0743L38.6239 24.5661C38.613 24.5991 38.5884 24.632 38.5502 24.6649C38.5174 24.6924 38.4737 24.7061 38.4191 24.7061H38.0014ZM41.5231 22.6885L40.4175 19.7649L39.3118 22.6885H41.5231Z" fill="#F6F6F6"/>
<path d="M43.9631 26.2708C43.9085 26.2708 43.8621 26.2516 43.8239 26.2132C43.7911 26.1802 43.7747 26.1363 43.7747 26.0814V20.6132C43.7747 20.5583 43.7911 20.5143 43.8239 20.4814C43.8621 20.443 43.9085 20.4238 43.9631 20.4238H44.3399C44.3945 20.4238 44.4381 20.443 44.4709 20.4814C44.5091 20.5143 44.5282 20.5583 44.5282 20.6132V20.9755C44.834 20.5528 45.2817 20.3414 45.8714 20.3414C46.4447 20.3414 46.8733 20.5226 47.1572 20.8849C47.4466 21.2473 47.6022 21.714 47.624 22.2849C47.6295 22.3453 47.6322 22.4387 47.6322 22.5649C47.6322 22.6912 47.6295 22.7845 47.624 22.8449C47.6022 23.4104 47.4466 23.8771 47.1572 24.2449C46.8678 24.6073 46.4392 24.7885 45.8714 24.7885C45.3035 24.7885 44.8613 24.5826 44.5446 24.1708V26.0814C44.5446 26.1363 44.5282 26.1802 44.4955 26.2132C44.4627 26.2516 44.419 26.2708 44.3644 26.2708H43.9631ZM45.6994 24.1214C46.087 24.1214 46.3682 24.0006 46.543 23.7591C46.7231 23.5175 46.8214 23.1991 46.8378 22.8038C46.8433 22.7489 46.846 22.6692 46.846 22.5649C46.846 21.5273 46.4638 21.0085 45.6994 21.0085C45.3226 21.0085 45.0387 21.1347 44.8476 21.3873C44.662 21.6343 44.561 21.9308 44.5446 22.2767L44.5364 22.5896L44.5446 22.9108C44.5555 23.2347 44.6593 23.5175 44.8558 23.7591C45.0524 24.0006 45.3336 24.1214 45.6994 24.1214Z" fill="#F6F6F6"/>
<path d="M50.3489 24.7885C49.7865 24.7885 49.336 24.6155 48.9975 24.2696C48.6645 23.9183 48.4816 23.4406 48.4488 22.8367L48.4406 22.5567L48.4488 22.2849C48.487 21.692 48.6727 21.2198 49.0057 20.8685C49.3442 20.5171 49.7892 20.3414 50.3407 20.3414C50.9467 20.3414 51.4163 20.5363 51.7494 20.9261C52.0824 21.3104 52.2489 21.832 52.2489 22.4908V22.6308C52.2489 22.6857 52.2298 22.7324 52.1916 22.7708C52.1589 22.8038 52.1152 22.8202 52.0606 22.8202H49.2268V22.8943C49.2432 23.2512 49.3497 23.5559 49.5462 23.8085C49.7483 24.0555 50.0131 24.1791 50.3407 24.1791C50.5918 24.1791 50.7966 24.1296 50.9549 24.0308C51.1187 23.9265 51.2388 23.8194 51.3153 23.7096C51.3644 23.6438 51.3999 23.6053 51.4218 23.5943C51.4491 23.5779 51.4955 23.5696 51.561 23.5696H51.9623C52.0114 23.5696 52.0524 23.5834 52.0851 23.6108C52.1179 23.6383 52.1343 23.6767 52.1343 23.7261C52.1343 23.8469 52.0578 23.9924 51.905 24.1626C51.7575 24.3328 51.5473 24.481 51.2743 24.6073C51.0068 24.7281 50.6983 24.7885 50.3489 24.7885ZM51.4709 22.252V22.2273C51.4709 21.8485 51.3672 21.541 51.1597 21.3049C50.9577 21.0634 50.6847 20.9426 50.3407 20.9426C49.9967 20.9426 49.7237 21.0634 49.5217 21.3049C49.3251 21.541 49.2268 21.8485 49.2268 22.2273V22.252H51.4709Z" fill="#F6F6F6"/>
<path d="M53.4166 24.7061C53.362 24.7061 53.3156 24.6896 53.2774 24.6567C53.2446 24.6183 53.2282 24.5716 53.2282 24.5167V20.6132C53.2282 20.5583 53.2446 20.5143 53.2774 20.4814C53.3156 20.443 53.362 20.4238 53.4166 20.4238H53.8097C53.8643 20.4238 53.908 20.443 53.9407 20.4814C53.979 20.5143 53.9981 20.5583 53.9981 20.6132V22.1943H56.2258V20.6132C56.2258 20.5583 56.2421 20.5143 56.2749 20.4814C56.3131 20.443 56.3595 20.4238 56.4141 20.4238H56.7991C56.8537 20.4238 56.8973 20.443 56.9301 20.4814C56.9683 20.5143 56.9874 20.5583 56.9874 20.6132V24.5167C56.9874 24.5716 56.9683 24.6183 56.9301 24.6567C56.8973 24.6896 56.8537 24.7061 56.7991 24.7061H56.4141C56.3595 24.7061 56.3131 24.6896 56.2749 24.6567C56.2421 24.6183 56.2258 24.5716 56.2258 24.5167V22.8532H53.9981V24.5167C53.9981 24.5716 53.979 24.6183 53.9407 24.6567C53.908 24.6896 53.8643 24.7061 53.8097 24.7061H53.4166Z" fill="#F6F6F6"/>
<path d="M57.9733 25.612C57.9187 25.612 57.8723 25.5928 57.8341 25.5543C57.8013 25.5214 57.7849 25.4775 57.7849 25.4226V24.2367C57.7849 24.1818 57.8013 24.1379 57.8341 24.1049C57.8723 24.0665 57.9187 24.0473 57.9733 24.0473H58.0142C58.2436 24.0418 58.4156 23.8496 58.5302 23.4708C58.6503 23.092 58.7104 22.4908 58.7104 21.6673V20.6132C58.7104 20.5583 58.7268 20.5143 58.7595 20.4814C58.7977 20.443 58.8442 20.4238 58.8988 20.4238H61.5114C61.566 20.4238 61.6096 20.443 61.6424 20.4814C61.6806 20.5143 61.6997 20.5583 61.6997 20.6132V24.0308H62.0847C62.1393 24.0308 62.1829 24.05 62.2157 24.0885C62.2539 24.1214 62.273 24.1653 62.273 24.2202V25.4226C62.273 25.4775 62.2539 25.5214 62.2157 25.5543C62.1829 25.5928 62.1393 25.612 62.0847 25.612H61.6997C61.6451 25.612 61.5987 25.5928 61.5605 25.5543C61.5277 25.5214 61.5114 25.4775 61.5114 25.4226V24.7061H58.5466V25.4226C58.5466 25.4775 58.5275 25.5214 58.4893 25.5543C58.4565 25.5928 58.4128 25.612 58.3582 25.612H57.9733ZM60.9381 24.0308V21.0826H59.4557V21.7579C59.4557 22.8559 59.3001 23.6191 58.9888 24.0473L60.9381 24.0308Z" fill="#F6F6F6"/>
<path d="M64.3173 24.7885C64.0498 24.7885 63.8014 24.7336 63.572 24.6238C63.3427 24.514 63.1598 24.3657 63.0233 24.1791C62.8923 23.9869 62.8267 23.7755 62.8267 23.5449C62.8267 23.1826 62.9742 22.8861 63.269 22.6555C63.5693 22.4194 63.9733 22.2657 64.4811 22.1943L65.7014 22.0214V21.7826C65.7014 21.2226 65.382 20.9426 64.7432 20.9426C64.503 20.9426 64.3064 20.9947 64.1535 21.0991C64.0006 21.1979 63.886 21.3159 63.8095 21.4532C63.7932 21.5026 63.7713 21.5383 63.744 21.5602C63.7222 21.5822 63.6894 21.5932 63.6457 21.5932H63.2936C63.2444 21.5932 63.2008 21.5767 63.1625 21.5438C63.1298 21.5053 63.1134 21.4614 63.1134 21.412C63.1189 21.2802 63.1789 21.132 63.2936 20.9673C63.4137 20.7971 63.5966 20.6516 63.8423 20.5308C64.088 20.4045 64.391 20.3414 64.7514 20.3414C65.3629 20.3414 65.8024 20.4869 66.07 20.7779C66.3375 21.0634 66.4713 21.4202 66.4713 21.8485V24.5167C66.4713 24.5716 66.4522 24.6183 66.414 24.6567C66.3812 24.6896 66.3375 24.7061 66.2829 24.7061H65.9062C65.8516 24.7061 65.8052 24.6896 65.767 24.6567C65.7342 24.6183 65.7178 24.5716 65.7178 24.5167V24.1626C65.5977 24.3383 65.423 24.4865 65.1937 24.6073C64.9643 24.7281 64.6722 24.7885 64.3173 24.7885ZM64.4893 24.1708C64.8442 24.1708 65.1336 24.0555 65.3575 23.8249C65.5868 23.5889 65.7014 23.2512 65.7014 22.812V22.5814L64.7514 22.7214C64.3637 22.7763 64.0716 22.8696 63.8751 23.0014C63.6785 23.1277 63.5802 23.2896 63.5802 23.4873C63.5802 23.7069 63.6703 23.8771 63.8505 23.9979C64.0307 24.1132 64.2436 24.1708 64.4893 24.1708Z" fill="#F6F6F6"/>
<path d="M71.3761 24.7885C70.7918 24.7885 70.3332 24.6238 70.0001 24.2943C69.6726 23.9594 69.4978 23.4928 69.476 22.8943L69.4678 22.5649L69.476 22.2355C69.4978 21.6371 69.6726 21.1732 70.0001 20.8438C70.3332 20.5089 70.7918 20.3414 71.3761 20.3414C71.7692 20.3414 72.1022 20.4128 72.3752 20.5555C72.6482 20.6983 72.8503 20.874 72.9813 21.0826C73.1178 21.2912 73.1915 21.4998 73.2024 21.7085C73.2079 21.7634 73.1915 21.8073 73.1533 21.8402C73.1151 21.8732 73.0687 21.8896 73.0141 21.8896H72.6209C72.5663 21.8896 72.5254 21.8787 72.4981 21.8567C72.4708 21.8347 72.4435 21.7908 72.4162 21.7249C72.3234 21.4614 72.1923 21.2747 72.0231 21.1649C71.8538 21.0496 71.6409 20.992 71.3843 20.992C71.0457 20.992 70.7755 21.0991 70.5734 21.3132C70.3769 21.5218 70.2704 21.843 70.254 22.2767L70.2458 22.5732L70.254 22.8532C70.2704 23.2924 70.3769 23.6163 70.5734 23.8249C70.77 24.0336 71.0403 24.1379 71.3843 24.1379C71.6409 24.1379 71.8538 24.083 72.0231 23.9732C72.1923 23.8579 72.3234 23.6685 72.4162 23.4049C72.4435 23.3391 72.4708 23.2951 72.4981 23.2732C72.5254 23.2457 72.5663 23.232 72.6209 23.232H73.0141C73.0687 23.232 73.1151 23.2512 73.1533 23.2896C73.1915 23.3226 73.2079 23.3665 73.2024 23.4214C73.1915 23.6245 73.1178 23.8332 72.9813 24.0473C72.8503 24.2559 72.6482 24.4316 72.3752 24.5743C72.1077 24.7171 71.7746 24.7885 71.3761 24.7885Z" fill="#F6F6F6"/>
<path d="M74.3634 24.7061C74.3088 24.7061 74.2624 24.6896 74.2242 24.6567C74.1914 24.6183 74.1751 24.5716 74.1751 24.5167V20.6132C74.1751 20.5583 74.1914 20.5143 74.2242 20.4814C74.2624 20.443 74.3088 20.4238 74.3634 20.4238H77.6148C77.6694 20.4238 77.7131 20.443 77.7459 20.4814C77.7841 20.5143 77.8032 20.5583 77.8032 20.6132V24.5167C77.8032 24.5716 77.7841 24.6183 77.7459 24.6567C77.7131 24.6896 77.6694 24.7061 77.6148 24.7061H77.2217C77.1671 24.7061 77.1234 24.6896 77.0907 24.6567C77.0579 24.6183 77.0415 24.5716 77.0415 24.5167V21.0826H74.9449V24.5167C74.9449 24.5716 74.9258 24.6183 74.8876 24.6567C74.8548 24.6896 74.8111 24.7061 74.7565 24.7061H74.3634Z" fill="#F6F6F6"/>
<path d="M80.7254 24.7885C80.163 24.7885 79.7125 24.6155 79.374 24.2696C79.041 23.9183 78.8581 23.4406 78.8253 22.8367L78.8171 22.5567L78.8253 22.2849C78.8635 21.692 79.0492 21.2198 79.3822 20.8685C79.7207 20.5171 80.1657 20.3414 80.7172 20.3414C81.3232 20.3414 81.7928 20.5363 82.1259 20.9261C82.4589 21.3104 82.6255 21.832 82.6255 22.4908V22.6308C82.6255 22.6857 82.6063 22.7324 82.5681 22.7708C82.5354 22.8038 82.4917 22.8202 82.4371 22.8202H79.6034V22.8943C79.6197 23.2512 79.7262 23.5559 79.9228 23.8085C80.1248 24.0555 80.3896 24.1791 80.7172 24.1791C80.9683 24.1791 81.1731 24.1296 81.3314 24.0308C81.4952 23.9265 81.6154 23.8194 81.6918 23.7096C81.7409 23.6438 81.7764 23.6053 81.7983 23.5943C81.8256 23.5779 81.872 23.5696 81.9375 23.5696H82.3388C82.3879 23.5696 82.4289 23.5834 82.4617 23.6108C82.4944 23.6383 82.5108 23.6767 82.5108 23.7261C82.5108 23.8469 82.4344 23.9924 82.2815 24.1626C82.1341 24.3328 81.9238 24.481 81.6508 24.6073C81.3833 24.7281 81.0748 24.7885 80.7254 24.7885ZM81.8474 22.252V22.2273C81.8474 21.8485 81.7437 21.541 81.5362 21.3049C81.3342 21.0634 81.0612 20.9426 80.7172 20.9426C80.3732 20.9426 80.1002 21.0634 79.8982 21.3049C79.7016 21.541 79.6034 21.8485 79.6034 22.2273V22.252H81.8474Z" fill="#F6F6F6"/>
<path d="M87.2329 25.7438C87.1783 25.7438 87.1319 25.7273 87.0937 25.6943C87.0609 25.6614 87.0445 25.6147 87.0445 25.5543V24.7061H83.7931C83.7385 24.7061 83.6921 24.6896 83.6539 24.6567C83.6211 24.6183 83.6047 24.5716 83.6047 24.5167V20.6132C83.6047 20.5583 83.6211 20.5143 83.6539 20.4814C83.6921 20.443 83.7385 20.4238 83.7931 20.4238H84.1862C84.2408 20.4238 84.2845 20.443 84.3173 20.4814C84.3555 20.5143 84.3746 20.5583 84.3746 20.6132V24.0473H86.4712V20.6132C86.4712 20.5583 86.4876 20.5143 86.5204 20.4814C86.5531 20.443 86.5968 20.4238 86.6514 20.4238H87.0445C87.0991 20.4238 87.1428 20.443 87.1756 20.4814C87.2138 20.5143 87.2329 20.5583 87.2329 20.6132L87.2247 24.0473H87.6178C87.6724 24.0473 87.7161 24.0665 87.7489 24.1049C87.7871 24.1379 87.8062 24.1818 87.8062 24.2367V25.5543C87.8062 25.6093 87.7871 25.6532 87.7489 25.6861C87.7161 25.7245 87.6724 25.7438 87.6178 25.7438H87.2329Z" fill="#F6F6F6"/>
<path d="M91.9772 24.7061C91.9226 24.7061 91.8762 24.6896 91.838 24.6567C91.8052 24.6183 91.7888 24.5716 91.7888 24.5167V21.0826H90.3638C90.3092 21.0826 90.2628 21.0661 90.2245 21.0332C90.1918 20.9947 90.1754 20.9481 90.1754 20.8932V20.6132C90.1754 20.5583 90.1918 20.5143 90.2245 20.4814C90.2628 20.443 90.3092 20.4238 90.3638 20.4238H93.9674C94.022 20.4238 94.0656 20.443 94.0984 20.4814C94.1366 20.5143 94.1557 20.5583 94.1557 20.6132V20.8932C94.1557 20.9481 94.1366 20.9947 94.0984 21.0332C94.0656 21.0661 94.022 21.0826 93.9674 21.0826H92.5423V24.5167C92.5423 24.5716 92.5259 24.6183 92.4932 24.6567C92.4604 24.6896 92.4167 24.7061 92.3621 24.7061H91.9772Z" fill="#F6F6F6"/>
<path d="M96.5695 24.7885C96.0071 24.7885 95.5566 24.6155 95.2181 24.2696C94.8851 23.9183 94.7022 23.4406 94.6694 22.8367L94.6612 22.5567L94.6694 22.2849C94.7076 21.692 94.8933 21.2198 95.2263 20.8685C95.5648 20.5171 96.0098 20.3414 96.5613 20.3414C97.1673 20.3414 97.6369 20.5363 97.97 20.9261C98.303 21.3104 98.4696 21.832 98.4696 22.4908V22.6308C98.4696 22.6857 98.4504 22.7324 98.4122 22.7708C98.3795 22.8038 98.3358 22.8202 98.2812 22.8202H95.4474V22.8943C95.4638 23.2512 95.5703 23.5559 95.7669 23.8085C95.9689 24.0555 96.2337 24.1791 96.5613 24.1791C96.8124 24.1791 97.0172 24.1296 97.1755 24.0308C97.3393 23.9265 97.4595 23.8194 97.5359 23.7096C97.585 23.6438 97.6205 23.6053 97.6424 23.5943C97.6697 23.5779 97.7161 23.5696 97.7816 23.5696H98.1829C98.232 23.5696 98.273 23.5834 98.3058 23.6108C98.3385 23.6383 98.3549 23.6767 98.3549 23.7261C98.3549 23.8469 98.2785 23.9924 98.1256 24.1626C97.9782 24.3328 97.7679 24.481 97.4949 24.6073C97.2274 24.7281 96.9189 24.7885 96.5695 24.7885ZM97.6915 22.252V22.2273C97.6915 21.8485 97.5878 21.541 97.3803 21.3049C97.1783 21.0634 96.9053 20.9426 96.5613 20.9426C96.2173 20.9426 95.9443 21.0634 95.7423 21.3049C95.5457 21.541 95.4474 21.8485 95.4474 22.2273V22.252H97.6915Z" fill="#F6F6F6"/>
<path d="M99.2523 24.7061C99.2086 24.7061 99.1676 24.6896 99.1294 24.6567C99.0967 24.6238 99.0803 24.5826 99.0803 24.5332C99.0803 24.4838 99.0994 24.4343 99.1376 24.3849L100.563 22.5155L99.2277 20.7449C99.1895 20.701 99.1704 20.6516 99.1704 20.5967C99.1704 20.5473 99.1867 20.5061 99.2195 20.4732C99.2523 20.4402 99.2932 20.4238 99.3424 20.4238H99.7601C99.8419 20.4238 99.9129 20.4677 99.973 20.5555L101.062 21.9802L102.152 20.5638C102.184 20.5198 102.214 20.4869 102.242 20.4649C102.274 20.4375 102.315 20.4238 102.364 20.4238H102.766C102.815 20.4238 102.856 20.4402 102.889 20.4732C102.921 20.5061 102.938 20.5473 102.938 20.5967C102.938 20.6516 102.919 20.701 102.88 20.7449L101.529 22.532L102.954 24.3849C102.992 24.4343 103.011 24.4838 103.011 24.5332C103.011 24.5826 102.995 24.6238 102.962 24.6567C102.93 24.6896 102.889 24.7061 102.839 24.7061H102.405C102.324 24.7061 102.253 24.6649 102.192 24.5826L101.046 23.0755L99.8829 24.5826C99.8501 24.621 99.8174 24.6512 99.7846 24.6732C99.7573 24.6951 99.7191 24.7061 99.67 24.7061H99.2523Z" fill="#F6F6F6"/>
<path d="M104.052 24.7061C103.998 24.7061 103.951 24.6896 103.913 24.6567C103.88 24.6183 103.864 24.5716 103.864 24.5167V20.6132C103.864 20.5583 103.88 20.5143 103.913 20.4814C103.951 20.443 103.998 20.4238 104.052 20.4238H104.445C104.5 20.4238 104.544 20.443 104.576 20.4814C104.614 20.5143 104.634 20.5583 104.634 20.6132V22.1943H106.861V20.6132C106.861 20.5583 106.878 20.5143 106.91 20.4814C106.949 20.443 106.995 20.4238 107.05 20.4238H107.435C107.489 20.4238 107.533 20.443 107.566 20.4814C107.604 20.5143 107.623 20.5583 107.623 20.6132V24.5167C107.623 24.5716 107.604 24.6183 107.566 24.6567C107.533 24.6896 107.489 24.7061 107.435 24.7061H107.05C106.995 24.7061 106.949 24.6896 106.91 24.6567C106.878 24.6183 106.861 24.5716 106.861 24.5167V22.8532H104.634V24.5167C104.634 24.5716 104.614 24.6183 104.576 24.6567C104.544 24.6896 104.5 24.7061 104.445 24.7061H104.052Z" fill="#F6F6F6"/>
<path d="M112.474 20.4238C112.518 20.4238 112.556 20.4402 112.589 20.4732C112.627 20.5061 112.646 20.5445 112.646 20.5885V24.5167C112.646 24.5716 112.627 24.6183 112.589 24.6567C112.556 24.6896 112.513 24.7061 112.458 24.7061H112.073C112.019 24.7061 111.972 24.6896 111.934 24.6567C111.901 24.6183 111.885 24.5716 111.885 24.5167V21.5273L109.616 24.5826C109.556 24.6649 109.485 24.7061 109.403 24.7061H109.035C108.986 24.7061 108.942 24.6896 108.904 24.6567C108.871 24.6183 108.855 24.5771 108.855 24.5332V20.6132C108.855 20.5583 108.871 20.5143 108.904 20.4814C108.942 20.443 108.988 20.4238 109.043 20.4238H109.436C109.491 20.4238 109.534 20.443 109.567 20.4814C109.605 20.5143 109.624 20.5583 109.624 20.6132V23.5861L111.885 20.5473C111.945 20.4649 112.016 20.4238 112.098 20.4238H112.474Z" fill="#F6F6F6"/>
<path d="M117.4 24.4673C117.427 24.5002 117.441 24.5359 117.441 24.5743C117.441 24.6128 117.424 24.6457 117.392 24.6732C117.364 24.6951 117.326 24.7061 117.277 24.7061H116.777C116.69 24.7061 116.619 24.6649 116.564 24.5826L115.377 22.8614H114.607V24.5167C114.607 24.5716 114.588 24.6183 114.55 24.6567C114.517 24.6896 114.473 24.7061 114.419 24.7061H114.034C113.979 24.7061 113.933 24.6896 113.894 24.6567C113.862 24.6183 113.845 24.5716 113.845 24.5167V20.6132C113.845 20.5583 113.862 20.5143 113.894 20.4814C113.933 20.443 113.979 20.4238 114.034 20.4238H114.419C114.473 20.4238 114.517 20.443 114.55 20.4814C114.588 20.5143 114.607 20.5583 114.607 20.6132V22.1943H115.36L116.458 20.5473C116.523 20.4649 116.597 20.4238 116.679 20.4238H117.105C117.154 20.4238 117.195 20.4375 117.228 20.4649C117.261 20.4869 117.277 20.5171 117.277 20.5555C117.277 20.583 117.263 20.6159 117.236 20.6543L116.016 22.4743L117.4 24.4673Z" fill="#F6F6F6"/>
<path d="M121.856 20.4238C121.9 20.4238 121.938 20.4402 121.971 20.4732C122.009 20.5061 122.028 20.5445 122.028 20.5885V24.5167C122.028 24.5716 122.009 24.6183 121.971 24.6567C121.938 24.6896 121.894 24.7061 121.84 24.7061H121.455C121.4 24.7061 121.354 24.6896 121.316 24.6567C121.283 24.6183 121.266 24.5716 121.266 24.5167V21.5273L118.998 24.5826C118.938 24.6649 118.867 24.7061 118.785 24.7061H118.416C118.367 24.7061 118.324 24.6896 118.285 24.6567C118.253 24.6183 118.236 24.5771 118.236 24.5332V20.6132C118.236 20.5583 118.253 20.5143 118.285 20.4814C118.324 20.443 118.37 20.4238 118.425 20.4238H118.818C118.872 20.4238 118.916 20.443 118.949 20.4814C118.987 20.5143 119.006 20.5583 119.006 20.6132V23.5861L121.266 20.5473C121.327 20.4649 121.398 20.4238 121.479 20.4238H121.856Z" fill="#F6F6F6"/>
<path fill-rule="evenodd" clip-rule="evenodd" d="M0 23.1608C0.126426 23.2279 0.262323 23.2614 0.407692 23.2614H4.42393C4.66937 23.2614 4.87018 23.1824 5.02637 23.0245C5.18256 22.844 5.26065 22.6409 5.26065 22.4152V9.72294L9.04261 16.7968C9.17648 17.045 9.33267 17.2368 9.51117 17.3722C9.68967 17.5076 9.92395 17.5752 10.214 17.5752H11.9544C12.4453 17.5752 12.8357 17.3158 13.1258 16.7968L16.8743 9.72294V22.4152C16.8743 22.6635 16.9524 22.8665 17.1086 23.0245C17.2871 23.1824 17.499 23.2614 17.7445 23.2614H21.7272C21.9727 23.2614 22.1735 23.1824 22.3297 23.0245C22.5082 22.8665 22.5974 22.6635 22.5974 22.4152V0.415247C22.5974 0.258932 22.562 0.120517 22.4912 0L26.0565 2.10748e-08C27.0448 2.10748e-08 27.8459 0.801175 27.8459 1.78947V26.2105C27.8459 27.1988 27.0448 28 26.0565 28H1.78947C0.801174 28 1.35751e-08 27.1988 1.35751e-08 26.2105L0 23.1608ZM17.1758 2.3615e-08H4.99262C5.06795 0.0903586 5.13498 0.194928 5.19371 0.313708L11.0842 10.9752L16.9747 0.313708C17.0334 0.194928 17.1004 0.0903586 17.1758 2.3615e-08Z" fill="#FE6915"/>
</svg>
