<svg width="22" height="22" viewBox="0 0 22 22" fill="none" xmlns="http://www.w3.org/2000/svg">
<path d="M15.6273 0H6.37046C5.48518 0 4.77002 0.717942 4.77002 1.60322V20.3989C4.77002 21.2814 5.48518 22 6.37046 22H15.6273C16.5112 22 17.2292 21.2821 17.2292 20.3989V1.60322C17.2285 0.717942 16.5112 0 15.6273 0ZM16.0287 17.825H5.97052V2.70443H16.0287V17.825ZM13.1451 1.62683H8.8534V1.15884H13.1458L13.1451 1.62683ZM14.9816 1.41297C14.9816 1.63932 14.7969 1.82263 14.5713 1.82263C14.3449 1.82263 14.1609 1.63863 14.1609 1.41297C14.1609 1.18731 14.3449 1.00331 14.5713 1.00331C14.7976 1.00262 14.9816 1.18662 14.9816 1.41297ZM12.9528 20.2919H9.04435V19.0893H12.9528V20.2919Z" fill="#FE6915"/>
</svg>
