<svg width="28" height="28" viewBox="0 0 28 28" fill="none" xmlns="http://www.w3.org/2000/svg">
<path fill-rule="evenodd" clip-rule="evenodd" d="M0 23.1608C0.126426 23.2279 0.262323 23.2614 0.407692 23.2614H4.42393C4.66937 23.2614 4.87018 23.1824 5.02637 23.0245C5.18256 22.844 5.26065 22.6409 5.26065 22.4152V9.72294L9.04261 16.7968C9.17648 17.045 9.33267 17.2368 9.51117 17.3722C9.68967 17.5076 9.92395 17.5752 10.214 17.5752H11.9544C12.4453 17.5752 12.8357 17.3158 13.1258 16.7968L16.8743 9.72294V22.4152C16.8743 22.6635 16.9524 22.8665 17.1086 23.0245C17.2871 23.1824 17.499 23.2614 17.7445 23.2614H21.7272C21.9727 23.2614 22.1735 23.1824 22.3297 23.0245C22.5082 22.8665 22.5974 22.6635 22.5974 22.4152V0.415247C22.5974 0.258932 22.562 0.120517 22.4912 0L26.0565 2.10748e-08C27.0448 2.10748e-08 27.8459 0.801175 27.8459 1.78947V26.2105C27.8459 27.1988 27.0448 28 26.0565 28H1.78947C0.801174 28 1.35751e-08 27.1988 1.35751e-08 26.2105L0 23.1608ZM17.1758 2.3615e-08H4.99262C5.06795 0.0903586 5.13498 0.194928 5.19371 0.313708L11.0842 10.9752L16.9747 0.313708C17.0334 0.194928 17.1004 0.0903586 17.1758 2.3615e-08Z" fill="#FE6915"/>
</svg>
