<svg width="34" height="34" viewBox="0 0 34 34" fill="none" xmlns="http://www.w3.org/2000/svg">
<path fill-rule="evenodd" clip-rule="evenodd" d="M0 28.1235C0.154581 28.2052 0.320764 28.2461 0.498549 28.2461H5.4024C5.70208 28.2461 5.94727 28.1502 6.13797 27.9584C6.32868 27.7392 6.42403 27.4926 6.42403 27.2186V11.8065L11.0418 20.3962C11.2053 20.6976 11.396 20.9305 11.6139 21.0949C11.8319 21.2593 12.1179 21.3414 12.4721 21.3414H14.5971C15.1965 21.3414 15.6732 21.0264 16.0274 20.3962L20.6043 11.8065V27.2186C20.6043 27.52 20.6997 27.7666 20.8904 27.9584C21.1083 28.1502 21.3671 28.2461 21.6668 28.2461H26.5298C26.8295 28.2461 27.0747 28.1502 27.2654 27.9584C27.4833 27.7666 27.5923 27.52 27.5923 27.2186V0.504307C27.5923 0.314462 27.5491 0.14636 27.4626 0L32.2105 2.90293e-08C33.1988 2.90293e-08 34 0.801175 34 1.78947V32.2105C34 33.1988 33.1988 34 32.2105 34H1.78948C0.801176 34 7.0344e-08 33.1988 7.0344e-08 32.2105L0 28.1235ZM20.9725 1.47323e-07H6.0967C6.18871 0.109739 6.27058 0.236742 6.3423 0.381009L13.5346 13.3272L20.7269 0.381009C20.7986 0.236742 20.8805 0.109739 20.9725 1.47323e-07Z" fill="#FE6915"/>
</svg>
